<svg xmlns="http://www.w3.org/2000/svg" viewBox="0 0 149.93 149.93"><defs><style>.cls-1{fill:#001b72;}.cls-2{fill:#fff;}.cls-3{fill:#00226d;}.cls-4{fill:red;}</style></defs><g id="Layer_2" data-name="Layer 2"><g id="Layer_1-2" data-name="Layer 1"><rect class="cls-1" width="149.93" height="149.93" rx="15.42"/><path class="cls-2" d="M22.33,41.5l9.54,5a6.64,6.64,0,0,0,5.69.23L86.24,26a2.7,2.7,0,0,0,.07-4.93L77.39,17a6.09,6.09,0,0,0-4.86-.1l-50,20.72A2.15,2.15,0,0,0,22.33,41.5Z"/><path class="cls-2" d="M51.56,55.27,72.09,65a6.82,6.82,0,0,0,5.79,0l50.25-23.24a1.51,1.51,0,0,0,0-2.73l-20.74-9.93a5.44,5.44,0,0,0-4.6,0L51.57,52.72A1.41,1.41,0,0,0,51.56,55.27Z"/><path class="cls-2" d="M15.6,50V108a3,3,0,0,0,1.67,2.7l49.58,24.69a3,3,0,0,0,4.37-2.7V73.8a3,3,0,0,0-1.68-2.7L52.13,62.48a3,3,0,0,0-4.36,2.58l-.32,8.21A3,3,0,0,1,43.31,76l-9.25-3.72a3,3,0,0,1-1.89-2.73l-.35-15A3,3,0,0,0,30,51.87l-10.18-4.6A3,3,0,0,0,15.6,50Z"/><path class="cls-2" d="M79.91,70.94l48.27-23.16A3.61,3.61,0,0,1,133.35,51l1,56.12a3.62,3.62,0,0,1-2,3.3L83.09,134.91a3.62,3.62,0,0,1-5.23-3.23V74.2A3.63,3.63,0,0,1,79.91,70.94Z"/><polygon class="cls-3" points="88.06 83.45 123.06 67.5 123.06 83.45 88.06 99.18 88.06 83.45"/><polygon class="cls-4" points="88.06 114.03 123.06 98.3 123.06 83.45 88.06 99.18 88.06 114.03"/></g></g></svg>